<?xml version="1.0" encoding="UTF-8" standalone="no"?>
<!-- Created with Inkscape (http://www.inkscape.org/) -->

<svg
   width="135.46666mm"
   height="135.46666mm"
   viewBox="0 0 135.46666 135.46666"
   version="1.1"
   id="svg1"
   xml:space="preserve"
   xmlns:xlink="http://www.w3.org/1999/xlink"
   xmlns="http://www.w3.org/2000/svg"
   xmlns:svg="http://www.w3.org/2000/svg"><defs
     id="defs1"><linearGradient
       id="linearGradient73"><stop
         style="stop-color:#090019;stop-opacity:1;"
         offset="0"
         id="stop72" /><stop
         style="stop-color:#02052f;stop-opacity:1;"
         offset="1"
         id="stop73" /></linearGradient><linearGradient
       xlink:href="#linearGradient73"
       id="linearGradient72"
       gradientUnits="userSpaceOnUse"
       gradientTransform="matrix(0.43616619,0,0,0.73481503,1711.9151,392.90634)"
       x1="589.63367"
       y1="758.02979"
       x2="383.88992"
       y2="650.50763" /><filter
       style="color-interpolation-filters:sRGB"
       id="filter1106-7"
       x="-0.79875313"
       y="-0.79875623"
       width="2.5975063"
       height="2.5975125"><feGaussianBlur
         stdDeviation="8.1319638"
         id="feGaussianBlur1106-5" /></filter></defs><g
     id="layer1"
     transform="translate(-1836.8024,-828.04873)"><rect
       style="fill:url(#linearGradient72);fill-opacity:1;stroke:none;stroke-width:0.257837;stroke-linecap:square"
       id="rect72"
       width="135.46666"
       height="135.46666"
       x="1836.8024"
       y="828.04871"
       ry="1.8038925" /><g
       id="g73"
       transform="matrix(0.68915801,0,0,0.68915801,587.43205,285.74811)"><g
         id="g1440-5"
         transform="matrix(2.1376852,0,0,2.1376852,5641.8511,-4674.9061)"
         style="mix-blend-mode:normal;filter:url(#filter1106-7)"><path
           id="path1438-6"
           style="fill:none;stroke:#ffffff;stroke-width:2.14102;stroke-dasharray:none"
           d="m -1745.1929,2588.1009 a 12.88702,12.88702 0 0 0 -12.8871,12.887 12.88702,12.88702 0 0 0 12.8871,12.8871 12.88702,12.88702 0 0 0 12.8871,-12.8871 12.88702,12.88702 0 0 0 -12.8871,-12.887 z m 0,7.7917 a 5.095305,5.095305 0 0 1 5.0953,5.0953 5.095305,5.095305 0 0 1 -5.0953,5.0953 5.095305,5.095305 0 0 1 -5.0953,-5.0953 5.095305,5.095305 0 0 1 5.0953,-5.0953 z" /><g
           id="g1439-2"
           transform="matrix(0.71282978,0,0,0.71282978,47.11647,1136.7992)"
           style="fill:#ffffff;stroke:none"><circle
             style="fill:#ffffff;stroke:none;stroke-width:1.209;stroke-dasharray:none"
             id="circle1438-9"
             cx="-2514.3582"
             cy="2054.051"
             r="10.922285" /></g></g><g
         id="g1453-1"
         transform="matrix(1.7011197,0,0,1.7011197,4880.4805,-3538.8006)"><path
           id="path1451-2"
           style="fill:none;stroke:#ffffff;stroke-width:2.14102;stroke-dasharray:none"
           d="m -1745.1929,2588.1009 a 12.88702,12.88702 0 0 0 -12.8871,12.887 12.88702,12.88702 0 0 0 12.8871,12.8871 12.88702,12.88702 0 0 0 12.8871,-12.8871 12.88702,12.88702 0 0 0 -12.8871,-12.887 z m 0,7.7917 a 5.095305,5.095305 0 0 1 5.0953,5.0953 5.095305,5.095305 0 0 1 -5.0953,5.0953 5.095305,5.095305 0 0 1 -5.0953,-5.0953 5.095305,5.095305 0 0 1 5.0953,-5.0953 z" /><g
           id="g1452-7"
           transform="matrix(0.71282978,0,0,0.71282978,47.11647,1136.7992)"
           style="fill:#ffffff;stroke:none"><circle
             style="fill:#ffffff;stroke:none;stroke-width:1.209;stroke-dasharray:none"
             id="circle1451-0"
             cx="-2514.3582"
             cy="2054.051"
             r="10.922285" /></g></g></g></g></svg>
