<?xml version="1.0" encoding="UTF-8" standalone="no"?>
<!-- Created with Inkscape (http://www.inkscape.org/) -->

<svg
   width="368.36252mm"
   height="179.59499mm"
   viewBox="0 0 368.36252 179.59499"
   version="1.1"
   id="svg1"
   xml:space="preserve"
   xmlns:xlink="http://www.w3.org/1999/xlink"
   xmlns="http://www.w3.org/2000/svg"
   xmlns:svg="http://www.w3.org/2000/svg"><defs
     id="defs1"><linearGradient
       id="linearGradient35"><stop
         style="stop-color:#f9f9f9;stop-opacity:1;"
         offset="0"
         id="stop34" /><stop
         style="stop-color:#f2f2f2;stop-opacity:1"
         offset="1"
         id="stop35" /></linearGradient><linearGradient
       id="linearGradient33"><stop
         style="stop-color:#f9f9f9;stop-opacity:1;"
         offset="0"
         id="stop32" /><stop
         style="stop-color:#f2f2f2;stop-opacity:1"
         offset="1"
         id="stop33" /></linearGradient><linearGradient
       id="linearGradient31"><stop
         style="stop-color:#f9f9f9;stop-opacity:1;"
         offset="0"
         id="stop30" /><stop
         style="stop-color:#f2f2f2;stop-opacity:1"
         offset="1"
         id="stop31" /></linearGradient><linearGradient
       id="linearGradient26"><stop
         style="stop-color:#f9f9f9;stop-opacity:1;"
         offset="0"
         id="stop26" /><stop
         style="stop-color:#f2f2f2;stop-opacity:1"
         offset="1"
         id="stop27" /></linearGradient><linearGradient
       xlink:href="#linearGradient26"
       id="linearGradient275"
       gradientUnits="userSpaceOnUse"
       gradientTransform="matrix(1.0882049,0,0,1.0882049,-6.4902919,-213.60354)"
       x1="105.93469"
       y1="57.175987"
       x2="112.9123"
       y2="84.782059" /><linearGradient
       xlink:href="#linearGradient35"
       id="linearGradient276"
       gradientUnits="userSpaceOnUse"
       gradientTransform="matrix(1.0882049,0,0,1.0882049,-12.566611,-209.964)"
       x1="105.93469"
       y1="57.175987"
       x2="112.9123"
       y2="84.782059" /><linearGradient
       xlink:href="#linearGradient33"
       id="linearGradient277"
       gradientUnits="userSpaceOnUse"
       gradientTransform="matrix(1.9119635,0,0,1.9119635,-1958.1663,1817.1471)"
       x1="105.93469"
       y1="57.175987"
       x2="112.9123"
       y2="84.782059" /><linearGradient
       xlink:href="#linearGradient31"
       id="linearGradient278"
       gradientUnits="userSpaceOnUse"
       gradientTransform="matrix(1.9119635,0,0,1.9119635,-1957.0525,1817.1471)"
       x1="105.93469"
       y1="57.175987"
       x2="112.9123"
       y2="84.782059" /></defs><g
     id="layer1"
     transform="translate(1929.8792,-2555.5732)"><g
       id="g201"
       transform="translate(0,648.37062)"><path
         id="path1"
         style="fill:url(#linearGradient277);fill-opacity:1;stroke-width:2.41647"
         d="m -1838.7122,1907.2026 c -1.3037,0 -2.3534,1.0497 -2.3534,2.3534 v 79.7986 c 0,1.3037 1.0497,2.3529 2.3534,2.3529 h 72.008 c 1.3036,0 2.3528,-1.0492 2.3528,-2.3529 v -79.7986 c 0,-1.3037 -1.0492,-2.3534 -2.3528,-2.3534 z m 31.9246,13.6999 h 12.237 12.237 v 16.3158 16.3158 h 4.0788 4.0793 v 4.0793 4.0788 h -4.0793 -4.0788 v 8.1582 8.1576 h -8.1582 -8.1576 v -8.1576 -8.1582 h -16.3163 -16.3158 v -8.1581 -8.1577 h 4.0788 4.0793 v -4.0793 -4.0788 h 4.0788 4.0789 v -4.0789 -4.0793 h 4.0793 4.0788 v -4.0788 z m 0,16.3158 v 4.0788 4.0793 h -4.0788 -4.0793 v 4.0788 4.0789 h 8.1581 8.1582 v -8.1577 -8.1581 h -4.0794 z" /><path
         id="path2"
         style="fill:url(#linearGradient278);fill-opacity:1;stroke-width:2.41647"
         d="m -1926.6516,1907.2026 c -1.3036,0 -2.3533,1.0497 -2.3533,2.3534 v 79.7986 c 0,1.3037 1.0497,2.3529 2.3533,2.3529 h 72.008 c 1.3037,0 2.3529,-1.0492 2.3529,-2.3529 v -79.7986 c 0,-1.3037 -1.0492,-2.3534 -2.3529,-2.3534 z m 15.6089,13.6999 h 20.3951 20.3952 v 4.0788 4.0788 h 4.0788 4.0788 v 8.1582 8.1581 h -4.0788 -4.0788 v 4.0788 4.0789 h -4.0794 -4.0788 v 4.0788 4.0793 h -8.1582 -8.1576 v 4.0789 4.0788 h 16.3158 16.3158 v 4.0793 4.0788 h -28.5528 -28.5528 v -8.1581 -8.1577 h 4.0789 4.0788 v -4.0793 -4.0788 h 4.0793 4.0788 v -4.0789 -4.0788 h 8.1582 8.1576 v -4.0793 -4.0788 h 4.0794 4.0788 v -4.0789 -4.0793 h -12.237 -12.237 v 4.0793 4.0789 h -8.1581 -8.1577 v -4.0789 -4.0793 h 4.0789 4.0788 v -4.0788 z" /><g
         id="g68"
         transform="matrix(0.66366091,0,0,0.59634029,-1939.0402,1907.6817)"><rect
           style="fill:#000000;fill-opacity:1;stroke-width:0.702331"
           id="rect59"
           width="39.050304"
           height="1.7495736"
           x="15.154208"
           y="69.175117"
           ry="0" /><rect
           style="fill:#000000;fill-opacity:1;stroke-width:0.576202"
           id="rect60"
           width="39.780609"
           height="1.1559792"
           x="14.840936"
           y="69.47126"
           ry="0" /></g><g
         id="g180"
         transform="matrix(0.45857184,0,0,0.59634029,-1877.3515,1907.6817)"><rect
           style="fill:#000000;fill-opacity:1;stroke-width:0.702331"
           id="rect155"
           width="39.050304"
           height="1.7495736"
           x="15.154208"
           y="69.175117"
           ry="0" /><rect
           style="fill:#000000;fill-opacity:1;stroke-width:0.576202"
           id="rect174"
           width="39.780609"
           height="1.1559792"
           x="14.840936"
           y="69.47126"
           ry="0" /></g><g
         id="g197"
         transform="matrix(0.45857184,0,0,0.59634029,-1789.1949,1907.6817)"><rect
           style="fill:#000000;fill-opacity:1;stroke-width:0.702331"
           id="rect180"
           width="39.050304"
           height="1.7495736"
           x="15.154208"
           y="69.175117"
           ry="0" /><rect
           style="fill:#000000;fill-opacity:1;stroke-width:0.576202"
           id="rect193"
           width="39.780609"
           height="1.1559792"
           x="14.840936"
           y="69.47126"
           ry="0" /></g><g
         id="g200"
         transform="matrix(0.25883039,0,0,0.59634029,-1845.3369,1907.6817)"><rect
           style="fill:#000000;fill-opacity:1;stroke-width:0.702331"
           id="rect197"
           width="39.050304"
           height="1.7495736"
           x="15.154208"
           y="69.175117"
           ry="0" /><rect
           style="fill:#000000;fill-opacity:1;stroke-width:0.576202"
           id="rect198"
           width="39.780609"
           height="1.1559792"
           x="14.840936"
           y="69.47126"
           ry="0" /></g></g><g
       id="g244"
       transform="translate(0,544.12478)"><g
         id="g208"
         transform="matrix(1.7569885,0,0,1.7569885,-1918.693,2298.2801)"><path
           id="path201"
           style="fill:url(#linearGradient275);fill-opacity:1;stroke-width:1.37535"
           d="m 160.96571,-162.34799 c -0.74198,0 -1.33913,0.59744 -1.33913,1.33942 v 45.41791 c 0,0.74198 0.59715,1.33912 1.33913,1.33912 h 40.98376 c 0.74198,0 1.33942,-0.59714 1.33942,-1.33912 v -45.41791 c 0,-0.74198 -0.59744,-1.33942 -1.33942,-1.33942 z m 18.1704,7.7974 h 6.96474 6.96475 v 9.28623 9.28623 h 2.32148 2.32149 v 2.32178 2.32148 h -2.32149 -2.32148 v 4.64326 4.64297 h -4.64326 -4.64327 v -4.64297 -4.64326 h -9.28623 -9.28623 v -4.64326 -4.64297 h 2.32149 2.32148 v -2.32178 -2.32148 h 2.32178 2.32148 v -2.32149 -2.32177 h 2.32149 2.32178 v -2.32149 z m 0,9.28623 v 2.32148 2.32178 h -2.32178 -2.32149 v 2.32148 2.32149 h 4.64327 4.64296 v -4.64297 -4.64326 h -2.32148 z" /><g
           id="g205"
           transform="matrix(1.1098754,0,0,0.33941047,142.91026,-162.07531)"
           style="opacity:1" /></g><g
         id="g212"
         transform="matrix(0.45857184,0,0,0.59634029,-1586.6258,2013.4517)"><rect
           style="fill:#000000;fill-opacity:1;stroke-width:0.702331"
           id="rect210"
           width="39.050304"
           height="1.7495736"
           x="15.154208"
           y="69.175117"
           ry="0" /><rect
           style="fill:#000000;fill-opacity:1;stroke-width:0.576202"
           id="rect211"
           width="39.780609"
           height="1.1559792"
           x="14.840936"
           y="69.47126"
           ry="0" /></g><g
         id="g213"
         transform="matrix(0.25883039,0,0,0.59634029,-1642.2387,2013.4517)"><rect
           style="fill:#000000;fill-opacity:1;stroke-width:0.702331"
           id="rect212"
           width="39.050304"
           height="1.7495736"
           x="15.154208"
           y="69.175117"
           ry="0" /><rect
           style="fill:#000000;fill-opacity:1;stroke-width:0.576202"
           id="rect213"
           width="39.780609"
           height="1.1559792"
           x="14.840936"
           y="69.47126"
           ry="0" /></g><g
         id="g237"
         transform="matrix(1.7569885,0,0,1.7569885,-1907.0681,2291.8856)"><path
           id="path213"
           style="fill:url(#linearGradient276);fill-opacity:1;stroke-width:1.37535"
           d="m 104.29844,-158.70843 c -0.74198,0 -1.33942,0.59744 -1.33942,1.33942 v 45.41791 c 0,0.74198 0.59744,1.33912 1.33942,1.33912 h 40.98347 c 0.74198,0 1.33942,-0.59714 1.33942,-1.33912 v -45.41791 c 0,-0.74198 -0.59744,-1.33942 -1.33942,-1.33942 z m 13.52684,7.7974 h 6.96475 6.96474 v 2.32148 2.32148 h 2.32178 2.32149 v 2.32178 2.32149 h 2.32148 2.32178 v 6.96474 6.96475 h -2.32178 -2.32148 v 2.32148 2.32178 h -2.32149 -2.32178 v 2.32149 2.32148 h -6.96474 -6.96475 v -2.32148 -2.32149 h -2.32148 -2.32149 v -2.32178 -2.32148 h -2.32178 -2.32148 v -6.96475 -6.96474 h 2.32148 2.32178 v -2.32149 -2.32178 h 2.32149 2.32148 v -2.32148 z m 0,4.64296 v 9.28653 9.28623 h 2.32178 2.32148 v 2.32148 2.32178 h 4.64326 4.64297 v -9.28652 -9.28623 h -2.32148 -2.32149 v -2.32149 -2.32178 h -4.64326 z" /><g
           id="g231"
           transform="matrix(1.1098754,0,0,0.33941047,86.242791,-158.43577)"
           style="opacity:1"><rect
             style="fill:#000000;fill-opacity:1;stroke-width:0.18322"
             id="rect214"
             width="5.1008849"
             height="0.91154265"
             x="49.217899"
             y="69.125786"
             ry="0" /><rect
             style="fill:#000000;fill-opacity:1;stroke-width:0.323115"
             id="rect229"
             width="12.509399"
             height="1.1559792"
             x="28.494638"
             y="69.47126"
             ry="0" /><rect
             style="fill:#000000;fill-opacity:1;stroke-width:0.18322"
             id="rect230"
             width="5.1008849"
             height="0.91154265"
             x="15.02626"
             y="69.125786"
             ry="0" /></g></g><path
         style="fill:#f2f2f2;fill-opacity:1;stroke-width:2.01878"
         d="m -1604.1541,2050.9573 -7.9365,0.033 -0.08,8.9274 16.8938,-0.2071 -0.1495,-17.0949 -8.6758,0.068 z"
         id="path237" /></g><g
       id="g267"
       transform="matrix(1.2411706,0,0,1.187251,631.62483,1215.7614)"
       style="fill:none;stroke:#f2f2f2;stroke-width:7.00051;stroke-linecap:butt;stroke-linejoin:round;stroke-dasharray:none;stroke-opacity:1"><rect
         style="fill:none;fill-opacity:1;stroke:#f2f2f2;stroke-width:7.00051;stroke-linecap:square;stroke-linejoin:miter;stroke-miterlimit:4;stroke-dasharray:none;stroke-opacity:1"
         id="rect264"
         width="289.6058"
         height="58.613663"
         x="-2060.2805"
         y="1217.6549"
         ry="2.1460888" /></g><text
       xml:space="preserve"
       style="font-style:normal;font-variant:normal;font-weight:bold;font-stretch:normal;font-size:68.7956px;font-family:Archivo;-inkscape-font-specification:'Archivo Bold';text-align:center;text-anchor:middle;fill:#f9f9f9;fill-opacity:1;stroke:#f2f2f2;stroke-width:0.961508;stroke-opacity:1"
       x="-1628.2601"
       y="2914.5862"
       id="text267"
       transform="scale(1.0722387,0.93262815)"><tspan
         id="tspan267"
         style="font-style:normal;font-variant:normal;font-weight:bold;font-stretch:normal;font-family:Archivo;-inkscape-font-specification:'Archivo Bold';stroke:#f2f2f2;stroke-width:0.961518;stroke-opacity:1"
         x="-1628.2601"
         y="2914.5862">STUDIOS</tspan></text><g
       id="g275"
       transform="translate(1.7961389,544.12478)"><path
         id="path267"
         style="fill:none;stroke:#ffffff;stroke-width:3.9;stroke-dasharray:none"
         d="m -1746.989,2043.9761 a 12.88702,12.88702 0 0 0 -12.8871,12.887 12.88702,12.88702 0 0 0 12.8871,12.8871 12.88702,12.88702 0 0 0 12.8871,-12.8871 12.88702,12.88702 0 0 0 -12.8871,-12.887 z m 0,7.7917 a 5.095305,5.095305 0 0 1 5.0953,5.0953 5.095305,5.095305 0 0 1 -5.0953,5.0953 5.095305,5.095305 0 0 1 -5.0953,-5.0953 5.095305,5.095305 0 0 1 5.0953,-5.0953 z" /><g
         id="g271"
         transform="matrix(0.47070691,0,0,0.47070691,-563.20966,1090.1676)"
         style="fill:#ffffff;stroke:none"><circle
           style="fill:#ffffff;stroke:none;stroke-width:1.209;stroke-dasharray:none"
           id="circle267"
           cx="-2514.3582"
           cy="2054.051"
           r="10.922285" /></g></g><ellipse
       style="fill:#ffffff;fill-opacity:1;stroke:none;stroke-width:3.90001;stroke-linecap:square;stroke-dasharray:none;stroke-opacity:1"
       id="ellipse275"
       cx="-1656.4944"
       cy="2696.5425"
       rx="5.784153"
       ry="6.3669958" /></g></svg>
