<?xml version="1.0" encoding="UTF-8" standalone="no"?>
<!-- Created with Inkscape (http://www.inkscape.org/) -->

<svg
   width="28.032333mm"
   height="26.421852mm"
   viewBox="0 0 28.032333 26.421852"
   version="1.1"
   id="svg1"
   xml:space="preserve"
   xmlns="http://www.w3.org/2000/svg"
   xmlns:svg="http://www.w3.org/2000/svg"><defs
     id="defs1" /><g
     id="layer1"
     transform="translate(217.98661,-259.88903)"><g
       id="g1990"
       transform="translate(-8.4784431)"><rect
         style="opacity:0.39511;fill:#180932;fill-opacity:1;stroke:#ffffff;stroke-width:0.160916;stroke-linecap:square;stroke-dasharray:none;stroke-opacity:1"
         id="rect1987"
         width="123.65833"
         height="17.976547"
         x="1106.1636"
         y="994.7724"
         ry="4.3749866" /><g
         id="g1989"
         transform="translate(1.0421029,0.26174459)"><path
           style="opacity:1;fill:#ffffff;fill-opacity:1;stroke:none;stroke-width:12.1;stroke-linecap:square;stroke-dasharray:none;stroke-opacity:1"
           id="path1987"
           d="m 1757.6782,3645.111 c -3.9479,5.4944 -45.3032,1.3677 -48.0875,-4.7985 -2.7844,-6.1662 21.4671,-39.9176 28.1993,-39.2458 6.7323,0.6718 23.8361,38.5499 19.8882,44.0443 z"
           transform="matrix(0.17919622,-0.01752617,0.01752617,0.17919622,741.46699,384.60225)" /><path
           style="opacity:1;fill:#0f0420;fill-opacity:1;stroke:none;stroke-width:10.6049;stroke-linecap:square;stroke-dasharray:none;stroke-opacity:1"
           d="m 1114.7033,1002.1854 2.2534,-0.039 -0.7106,3.5396 -0.9913,-0.03 z"
           id="path1988" /><path
           style="opacity:1;fill:#0f0420;fill-opacity:1;stroke:none;stroke-width:10.6049;stroke-linecap:square;stroke-dasharray:none;stroke-opacity:1"
           d="m 1115.2777,1006.0317 0.9606,-0.024 v 0.6367 l -1.1139,-0.1048 z"
           id="path1989" /></g><g
         id="g1989-0"
         transform="matrix(3.1731334,0,0,3.1731334,-3736.6173,-2911.4769)"><path
           style="opacity:1;fill:#ffffff;fill-opacity:1;stroke:none;stroke-width:12.1;stroke-linecap:square;stroke-dasharray:none;stroke-opacity:1"
           id="path1987-7"
           d="m 1757.6782,3645.111 c -3.9479,5.4944 -45.3032,1.3677 -48.0875,-4.7985 -2.7844,-6.1662 21.4671,-39.9176 28.1993,-39.2458 6.7323,0.6718 23.8361,38.5499 19.8882,44.0443 z"
           transform="matrix(0.17919622,-0.01752617,0.01752617,0.17919622,741.46699,384.60225)" /><path
           style="opacity:1;fill:#0f0420;fill-opacity:1;stroke:none;stroke-width:10.6049;stroke-linecap:square;stroke-dasharray:none;stroke-opacity:1"
           d="m 1114.7033,1002.1854 2.2534,-0.039 -0.7106,3.5396 -0.9913,-0.03 z"
           id="path1988-8" /><path
           style="opacity:1;fill:#0f0420;fill-opacity:1;stroke:none;stroke-width:10.6049;stroke-linecap:square;stroke-dasharray:none;stroke-opacity:1"
           d="m 1115.2777,1006.0317 0.9606,-0.024 v 0.6367 l -1.1139,-0.1048 z"
           id="path1989-6" /></g><text
         xml:space="preserve"
         style="font-weight:500;font-size:6.35px;font-family:Nunito;-inkscape-font-specification:'Nunito Medium';text-align:center;text-anchor:middle;white-space:pre;inline-size:155.731;display:inline;fill:#ffffff;fill-opacity:1;stroke:#ffffff;stroke-width:0.293;stroke-linecap:square"
         x="454.12518"
         y="131.79865"
         id="text1989"
         transform="matrix(0.68837401,0,0,0.68837401,856.83971,911.51598)"><tspan
           x="454.12518"
           y="131.79865"
           id="tspan2"><tspan
             style="font-style:italic"
             id="tspan1">Get your pvc and vote for good governance 
</tspan></tspan><tspan
           x="454.12518"
           y="139.73615"
           id="tspan4"><tspan
             style="font-style:italic"
             id="tspan3">so you can afford our games</tspan><tspan
             y="139.73615"
             id="tspan5"> </tspan></tspan></text></g></g></svg>
